<svg width="119" height="20" xmlns="http://www.w3.org/2000/svg" xmlns:xlink="http://www.w3.org/1999/xlink"><defs><path id="a" d="M33.122 17.16V.578H0v16.58z"/><path id="c" d="M33.122 17.16V.578H0v16.58z"/></defs><g fill="none" fill-rule="evenodd"><g fill-rule="nonzero"><path d="M16.5.2c-3.7 0-7.1.9-9.8 2.6H0L1.6 5c.2.3.7 1 .9 1.7C1.7 8 1.3 9.5 1.3 11c0 4.6 3.7 8.3 8.3 8.3 1.9 0 3.7-.7 5.2-1.8l.5.8 1.1 1.7 1.1-1.7.5-.8c.5.4 1.1.8 1.7 1.1 1.1.5 2.3.8 3.5.8 1 0 1.9-.2 2.9-.5 4.3-1.6 6.5-6.4 4.9-10.6-.2-.5-.4-1-.7-1.5.3-.7.8-1.5.9-1.7l1.6-2.2h-6.9C23.3 1 20 .2 16.5.2m0 1.3c3.5 0 6.6.9 9.2 2.6h4.6s-1 1.4-1.4 2.8c.4.5.7 1.1.9 1.7 1.3 3.6-.5 7.5-4.1 8.9-.8.3-1.6.4-2.4.4-1 0-2-.2-2.9-.6-1-.5-1.9-1.1-2.5-2l-1.5 2.2-1.5-2.2c-1.3 1.6-3.2 2.6-5.4 2.6-3.8 0-6.9-3.1-6.9-6.9 0-1.5.5-2.9 1.3-4.1-.2-1.4-1.2-2.8-1.2-2.8H7c2.6-1.7 5.9-2.6 9.5-2.6" fill="#FFF"/><path d="M7.5 4.7c2.6-.3 9.9-.6 7.9 10l2.3-.2c-1-6.5 1.1-9.9 7.6-10.2-10.8-5.9-17 .3-17.8.4" fill="#FBC40F"/></g><path d="M17.6 13.1c1.2 3.2 4.8 4.9 8 3.7 3.2-1.2 4.9-4.8 3.7-8-1.2-3.2-4.8-4.9-8-3.7-3.3 1.2-4.9 4.8-3.7 8m-1.8-2.2c0 3.4-2.8 6.2-6.2 6.2-3.4 0-6.2-2.8-6.2-6.2 0-3.4 2.8-6.2 6.2-6.2 3.5 0 6.2 2.8 6.2 6.2" fill="#FFF" fill-rule="nonzero"/><path d="M10.7 10.8c0 .6-.5 1.1-1.1 1.1-.6 0-1.1-.5-1.1-1.1 0-.6.5-1.1 1.1-1.1.6 0 1.1.5 1.1 1.1" fill="#EF6945" fill-rule="nonzero"/><path d="M24.5 10.8c0 .6-.5 1.1-1.1 1.1-.6 0-1.1-.5-1.1-1.1 0-.6.5-1.1 1.1-1.1.6 0 1.1.5 1.1 1.1" fill="#00a680" fill-rule="nonzero"/><path d="M25.3 16.1c-1.4.5-2.9.4-4.2-.2-1.3-.6-2.4-1.7-2.9-3.1-.5-1.4-.5-2.9.2-4.2.6-1.3 1.7-2.4 3.1-2.9 2.8-1.1 6 .4 7.1 3.3 1 2.9-.4 6.1-3.3 7.1m-15.7.3c-3 0-5.5-2.5-5.5-5.5s2.5-5.5 5.5-5.5 5.5 2.5 5.5 5.5-2.4 5.5-5.5 5.5M23.2 4c-.7 0-1.5.2-2.2.4-1.7.7-3.1 2-3.9 3.6-.4.8-.5 1.6-.6 2.4-.2-3.5-3.2-6.3-6.7-6.4 2-.8 4.2-1.3 6.7-1.3s4.7.5 6.7 1.3m5.7 2.8c.4-1.4 1.4-2.7 1.4-2.7h-4.6c-2.6-1.7-5.7-2.6-9.2-2.6-3.6 0-6.9.9-9.5 2.6H2.7s1 1.4 1.4 2.7c-.8 1.1-1.3 2.6-1.3 4.1 0 3.8 3.1 6.9 6.9 6.9 2.2 0 4.1-1 5.4-2.6l1.5 2.2 1.5-2.2c.7.8 1.5 1.5 2.5 2 1.7.8 3.5.9 5.3.2 3.5-1.3 5.3-5.3 4-8.9-.3-.6-.6-1.2-1-1.7" fill="#000A12" fill-rule="nonzero"/><path d="M9.5 13.1c-1.2 0-2.2-1-2.2-2.2 0-1.2 1-2.2 2.2-2.2 1.2 0 2.2 1 2.2 2.2.1 1.2-.9 2.2-2.2 2.2m0-5.7c-1.9 0-3.4 1.5-3.4 3.4s1.5 3.4 3.4 3.4 3.4-1.5 3.4-3.4C13 9 11.4 7.4 9.5 7.4m13.9 5.7c-1.2 0-2.2-1-2.2-2.2 0-1.2 1-2.2 2.2-2.2 1.2 0 2.2 1 2.2 2.2 0 1.2-1 2.2-2.2 2.2m0-5.7c-1.9 0-3.4 1.5-3.4 3.4s1.5 3.4 3.4 3.4 3.4-1.5 3.4-3.4c0-1.8-1.5-3.4-3.4-3.4" fill="#000A12" fill-rule="nonzero"/><path d="M43.5 3.5a7.5 7.5 0 1 1 0 15 7.5 7.5 0 0 1 0-15m16.9 0a7.5 7.5 0 1 1 0 15 7.5 7.5 0 0 1 0-15m16.1 0a7.5 7.5 0 1 1 0 15 7.5 7.5 0 0 1 0-15m16.5 0a7.5 7.5 0 1 1 0 15 7.5 7.5 0 0 1 0-15m16.9 0a7.5 7.5 0 1 1 0 15 7.5 7.5 0 0 1 0-15" fill="#FFF" fill-rule="nonzero"/><g transform="translate(85 2)"><mask id="b" fill="#fff"><use xlink:href="#a"/></mask><path d="M5.6 14.9c-1.6-.7-2.8-2.1-3.4-3.7-.6-1.7-.5-3.5.2-5.1.7-1.6 2.1-2.8 3.7-3.4 3.4-1.3 7.2.5 8.5 3.9 1.3 3.4-.5 7.2-3.9 8.5-1.7.6-3.5.5-5.1-.2zM5.5 1.1C3.4 1.9 1.8 3.4.8 5.4.3 6.5 0 7.7 0 8.9c0 1 .2 1.9.5 2.9.8 2.1 2.3 3.7 4.3 4.6 2 .9 4.3 1 6.3.3 4.3-1.6 6.5-6.4 4.9-10.6-1.4-4.4-6.2-6.6-10.5-5z" fill="#00a680" fill-rule="nonzero" mask="url(#b)"/></g><g transform="translate(85 2)"><mask id="d" fill="#fff"><use xlink:href="#c"/></mask><path d="M22.2 14.9c-1.6-.7-2.8-2.1-3.4-3.7-.6-1.7-.5-3.5.2-5.1.7-1.6 2.1-2.8 3.7-3.4 3.4-1.3 7.2.5 8.5 3.9 1.3 3.4-.5 7.2-3.9 8.5-1.7.6-3.5.5-5.1-.2zm-.1-13.8c-2.1.8-3.7 2.3-4.7 4.3-.5 1.1-.8 2.3-.8 3.5 0 1 .2 1.9.5 2.9.8 2.1 2.3 3.7 4.3 4.6 2 .9 4.3 1 6.3.3 4.3-1.6 6.5-6.4 4.9-10.6-1.5-4.4-6.2-6.6-10.5-5z" fill="#00a680" fill-rule="nonzero" mask="url(#d)"/></g><path d="M57.6 16.9c-1.6-.7-2.8-2.1-3.4-3.7-.6-1.7-.5-3.5.2-5.1.7-1.6 2.1-2.8 3.7-3.4 3.4-1.3 7.2.5 8.5 3.9 1.3 3.4-.5 7.2-3.9 8.5-1.7.6-3.5.5-5.1-.2zm-.1-13.8c-2.1.8-3.7 2.3-4.7 4.3-.5 1.1-.8 2.3-.8 3.5 0 1 .2 1.9.5 2.9.8 2.1 2.3 3.7 4.3 4.6 2 .9 4.3 1 6.3.3 4.3-1.6 6.5-6.4 4.9-10.6-1.5-4.4-6.3-6.6-10.5-5z" fill="#00a680" fill-rule="nonzero"/><path d="M37.2 10.8c0-3.6 3-6.6 6.6-6.6 3.6 0 6.6 3 6.6 6.6 0 3.6-3 6.6-6.6 6.6-3.6 0-6.6-2.9-6.6-6.6m-1.6 0c0 4.6 3.7 8.3 8.3 8.3 4.6 0 8.3-3.7 8.3-8.3 0-4.6-3.7-8.3-8.3-8.3-4.6.1-8.3 3.8-8.3 8.3m34.7 0c0-3.6 3-6.6 6.6-6.6 3.6 0 6.6 3 6.6 6.6 0 3.6-3 6.6-6.6 6.6-3.6 0-6.6-2.9-6.6-6.6m-1.7 0c0 4.6 3.7 8.3 8.3 8.3 4.6 0 8.3-3.7 8.3-8.3 0-4.6-3.7-8.3-8.3-8.3-4.6.1-8.3 3.8-8.3 8.3" fill="#00a680" fill-rule="nonzero"/><path d="M39.6 10.8c0 2.3 1.8 4.1 4.1 4.1s4.1-1.8 4.1-4.1-1.8-4.1-4.1-4.1c-2.2 0-4.1 1.8-4.1 4.1m16.6 0c0 2.3 1.8 4.1 4.1 4.1s4.1-1.8 4.1-4.1-1.8-4.1-4.1-4.1c-2.2 0-4.1 1.8-4.1 4.1m16.5 0c0 2.3 1.8 4.1 4.1 4.1s4.1-1.8 4.1-4.1-1.8-4.1-4.1-4.1-4.1 1.8-4.1 4.1m16.6.1c0 2.3 1.8 4.1 4.1 4.1s4.1-1.8 4.1-4.1-1.8-4.1-4.1-4.1-4.1 1.8-4.1 4.1m16.5-.1c0 2.3 1.8 4.1 4.1 4.1s4.1-1.8 4.1-4.1-1.8-4.1-4.1-4.1c-2.2 0-4.1 1.8-4.1 4.1" fill="#00a680" fill-rule="nonzero"/></g></svg>