<svg xmlns="http://www.w3.org/2000/svg" viewBox="0 0 26 26"><path d="M13 4c-2.66 0-5.04 1.164-6.688 3H4.595A4.591 4.591 0 0 0 0 11.594v2.812A4.591 4.591 0 0 0 4.594 19h1.718c1.649 1.836 4.024 3 6.688 3 2.664 0 5.04-1.164 6.688-3h1.718A4.591 4.591 0 0 0 26 14.406v-2.812A4.591 4.591 0 0 0 21.406 7h-1.718C18.038 5.164 15.66 4 13 4zm3.594 4h4.812A3.594 3.594 0 0 1 25 11.594v2.812A3.594 3.594 0 0 1 21.406 18H11c1.398 0 2-1.61 2-3.594v-2.812A3.594 3.594 0 0 1 16.594 8zm-6.032 1.563c.477 0 .876.37.876.812 0 .441-.399.781-.876.781-.476 0-.843-.34-.843-.781a.83.83 0 0 1 .844-.813zm11.563 0a.827.827 0 0 0-.844.812c0 .441.367.781.844.781s.875-.34.875-.781-.398-.813-.875-.813zm-19.938.374h1.657l.469 3.626.625-3.626h1.468l.625 3.626.469-3.626h1.625l-1.344 6.157H6.313l-.657-3.782-.625 3.782H3.563zm13.344 0v6.126h1.594v-1.875h3V12.75h-3v-1.344h3.344V9.937zm-5.719 1.688h1.5v4.438h-1.5zm11.563 0v4.438h1.5v-4.438z"/></svg>